<svg class="border shadow-md" viewBox="0 0 775.28 775.28" style="width: 775.28px; height: 775.28px;" xmlns="http://www.w3.org/2000/svg" preserveAspectRatio="none"><rect class="bg" id="bg" x="0" y="0" width="775.28" height="775.28" fill="#000000"></rect><g transform="rotate(0 387.64 387.64)"><path d="M -487.64 -47.53 S -253.82 -99.53
            0.00 -47.53 63.64 -123.53
            487.64 -47.53 585.28 -86.29
            975.28 -47.53 1209.10 -106.53
            1462.92 -47.53 h 110 V 975.28 H -487.64 Z" fill="#00253C" id="-1"></path><path d="M -487.64 30.00 S -253.82 -21.00
            0.00 30.00 115.64 -19.00
            487.64 30.00 721.46 -34.00
            975.28 30.00 1098.92 -8.76
            1462.92 30.00 h 110 V 975.28 H -487.64 Z" fill="#002137" id="0"></path><path id="1" d="M -487.64 107.53 S -255.00 34.53
            0.00 107.53 233.82 57.53
            487.64 107.53 721.46 62.53
            975.28 107.53 1031.92 68.76
            1462.92 107.53 h 110 V 975.28 H -487.64 Z" fill="#001d32"></path><path id="2" d="M -487.64 185.06 S -425.00 109.06
            0.00 185.06 172.64 133.06
            487.64 185.06 721.46 146.29
            975.28 185.06 1208.92 119.06
            1462.92 185.06 h 110 V 975.28 H -487.64 Z" fill="#00192d"></path><path id="3" d="M -487.64 262.58 S -253.82 188.58
            0.00 262.58 -5.36 206.58
            487.64 262.58 685.28 222.58
            975.28 262.58 1053.92 197.58
            1462.92 262.58 h 110 V 975.28 H -487.64 Z" fill="#001528"></path><path id="4" d="M -487.64 340.11 S -253.82 301.35
            0.00 340.11 233.82 301.35
            487.64 340.11 721.46 270.11
            975.28 340.11 1013.92 301.35
            1462.92 340.11 h 110 V 975.28 H -487.64 Z" fill="#001123"></path><path id="5" d="M -487.64 417.64 S -253.82 378.88
            0.00 417.64 9.64 378.88
            487.64 417.64 721.46 349.64
            975.28 417.64 1209.10 378.88
            1462.92 417.64 h 110 V 975.28 H -487.64 Z" fill="#000d1e"></path><path id="6" d="M -487.64 495.17 S -426.00 456.40
            0.00 495.17 112.64 456.40
            487.64 495.17 721.46 455.17
            975.28 495.17 1209.10 456.40
            1462.92 495.17 h 110 V 975.28 H -487.64 Z" fill="#000919"></path><path id="7" d="M -487.64 572.70 S -253.82 533.93
            0.00 572.70 97.64 514.70
            487.64 572.70 721.46 504.70
            975.28 572.70 1209.10 505.70
            1462.92 572.70 h 110 V 975.28 H -487.64 Z" fill="#000514"></path><path id="8" d="M -487.64 650.22 S -253.82 590.22
            0.00 650.22 -6.36 582.22
            487.64 650.22 562.28 611.46
            975.28 650.22 1202.92 586.22
            1462.92 650.22 h 110 V 975.28 H -487.64 Z" fill="#00010f"></path><path id="9" d="M -487.64 727.75 S -253.82 652.75
            0.00 727.75 233.82 656.75
            487.64 727.75 574.28 688.99
            975.28 727.75 1209.10 662.75
            1462.92 727.75 h 110 V 975.28 H -487.64 Z" fill="#00000a"></path></g></svg>